<svg width="91" height="124" viewBox="0 0 91 124" fill="none" xmlns="http://www.w3.org/2000/svg">
<g clip-path="url(#clip0_32182_1497)">
<path d="M89.6075 70.0931C94.0789 45.73 77.9536 22.3551 53.5906 17.8836C29.2275 13.4121 5.85256 29.5375 1.38111 53.9005C-3.09035 78.2635 13.035 101.639 37.398 106.11C61.761 110.581 85.136 94.4561 89.6075 70.0931Z" fill="#5A7BC1"/>
<path d="M70.93 61.2199C65.08 62.8399 59.52 65.3299 54.1 68.0299C54.22 67.5399 54.34 67.0499 54.46 66.5499C55.25 63.3099 56.03 60.0699 56.79 56.8299C64.83 49.7699 97.73 5.8499 78.56 0.4499C70.57 -0.4101 65.75 9.4599 62.39 15.3599C56.1 27.2099 53.6 40.4699 50.69 53.4399C43.5 60.4599 35.38 66.9799 25.85 70.4599C9.15 75.8399 11.07 63.1399 20.58 54.7299C25.57 50.4599 32.3 48.6099 38.79 49.0699C39.84 48.9799 40.9 49.2999 41.95 49.6299C43.45 50.0999 44.91 50.5599 46.28 49.7899C48.74 48.4499 48.31 44.5799 45.72 43.7299C31.58 38.8599 14.72 46.2699 8.4 59.7899C3.43 69.2899 8.82 78.9399 19.8 78.4499C30.47 77.7999 39.82 71.4299 47.96 64.9699C47.45 67.0599 46.92 69.1499 46.39 71.2399C46.28 71.6599 46.17 72.0899 46.06 72.5099C36.49 78.3299 27.52 85.4999 21.07 94.7599C17.12 100.45 13.37 107.06 13.8 114.21C14.06 118.13 16.18 122.43 20.28 123.39C21.11 123.54 21.91 123.61 22.7 123.61C39.84 123.61 48.11 89.8799 51.85 76.8699C58.48 73.1599 65.39 69.7799 72.72 67.6999C76.93 66.4799 75.17 60.1099 70.94 61.2299L70.93 61.2199ZM61.05 38.2599C63.15 29.9599 69.58 10.8499 77.42 7.0799C78.83 17.3099 66.08 35.1299 59.87 43.1899C60.24 41.5399 60.63 39.8999 61.05 38.2599ZM23.02 116.94C20.56 117.34 20.41 114.1 20.47 112.36C20.85 107.78 23.23 103.66 25.67 99.8699C30.32 92.8499 36.56 87.0599 43.41 82.2199C40.48 91.4299 33.71 115.35 23.02 116.93V116.94Z" fill="white"/>
</g>
<defs>
<clipPath id="clip0_32182_1497">
<rect width="89.7" height="123.2" fill="white" transform="translate(0.650002 0.399902)"/>
</clipPath>
</defs>
</svg>
