<svg width="375" height="44" viewBox="0 0 375 44" fill="none" xmlns="http://www.w3.org/2000/svg">
<g clip-path="url(#clip0_95_2149)">
<path opacity="0.4" fill-rule="evenodd" clip-rule="evenodd" d="M339.589 17.1599H354.411C355.659 17.1599 356.111 17.2899 356.568 17.5339C357.024 17.7779 357.382 18.136 357.626 18.5923C357.87 19.0486 358 19.5012 358 20.7494V25.0705C358 26.3186 357.87 26.7712 357.626 27.2275C357.382 27.6838 357.024 28.0419 356.568 28.2859C356.111 28.53 355.659 28.6599 354.411 28.6599H339.589C338.341 28.6599 337.889 28.53 337.432 28.2859C336.976 28.0419 336.618 27.6838 336.374 27.2275C336.13 26.7712 336 26.3186 336 25.0705V20.7494C336 19.5012 336.13 19.0486 336.374 18.5923C336.618 18.136 336.976 17.7779 337.432 17.5339C337.889 17.2899 338.341 17.1599 339.589 17.1599ZM339.589 18.1599C338.602 18.1599 338.258 18.2264 337.904 18.4157C337.622 18.5665 337.407 18.7819 337.256 19.0639C337.067 19.4178 337 19.7624 337 20.7494V25.0705C337 26.0575 337.067 26.402 337.256 26.7559C337.407 27.0379 337.622 27.2533 337.904 27.4041C338.258 27.5934 338.602 27.6599 339.589 27.6599H354.411C355.398 27.6599 355.742 27.5934 356.096 27.4041C356.378 27.2533 356.593 27.0379 356.744 26.7559C356.933 26.402 357 26.0575 357 25.0705V20.7494C357 19.7624 356.933 19.4178 356.744 19.0639C356.593 18.7819 356.378 18.5665 356.096 18.4157C355.742 18.2264 355.398 18.1599 354.411 18.1599H339.589ZM360.5 22.8499C360.5 24.0865 359 24.8499 359 24.8499V20.8499C359 20.8499 360.5 21.6133 360.5 22.8499Z" fill="#171725"/>
<rect x="338" y="19.0765" width="18" height="7.66667" rx="1.6" fill="#171725"/>
<path fill-rule="evenodd" clip-rule="evenodd" d="M307.623 18.5659C307.6 18.6818 307.6 18.8212 307.6 19.1V26.8C307.6 27.0788 307.6 27.2182 307.623 27.3341C307.718 27.8101 308.09 28.1822 308.566 28.2769C308.682 28.3 308.821 28.3 309.1 28.3C309.379 28.3 309.518 28.3 309.634 28.2769C310.11 28.1822 310.482 27.8101 310.577 27.3341C310.6 27.2182 310.6 27.0788 310.6 26.8V19.1C310.6 18.8212 310.6 18.6818 310.577 18.5659C310.482 18.0898 310.11 17.7177 309.634 17.623C309.518 17.6 309.379 17.6 309.1 17.6C308.821 17.6 308.682 17.6 308.566 17.623C308.09 17.7177 307.718 18.0898 307.623 18.5659ZM302.9 21.5C302.9 21.2212 302.9 21.0818 302.923 20.9659C303.018 20.4898 303.39 20.1177 303.866 20.023C303.982 20 304.121 20 304.4 20C304.679 20 304.818 20 304.934 20.023C305.41 20.1177 305.782 20.4898 305.877 20.9659C305.9 21.0818 305.9 21.2212 305.9 21.5V26.8C305.9 27.0788 305.9 27.2182 305.877 27.3341C305.782 27.8101 305.41 28.1822 304.934 28.2769C304.818 28.3 304.679 28.3 304.4 28.3C304.121 28.3 303.982 28.3 303.866 28.2769C303.39 28.1822 303.018 27.8101 302.923 27.3341C302.9 27.2182 302.9 27.0788 302.9 26.8V21.5ZM298.323 23.2659C298.3 23.3818 298.3 23.5212 298.3 23.8V26.8C298.3 27.0788 298.3 27.2182 298.323 27.3341C298.418 27.8101 298.79 28.1822 299.266 28.2769C299.382 28.3 299.521 28.3 299.8 28.3C300.079 28.3 300.218 28.3 300.334 28.2769C300.81 28.1822 301.182 27.8101 301.277 27.3341C301.3 27.2182 301.3 27.0788 301.3 26.8V23.8C301.3 23.5212 301.3 23.3818 301.277 23.2659C301.182 22.7898 300.81 22.4177 300.334 22.323C300.218 22.3 300.079 22.3 299.8 22.3C299.521 22.3 299.382 22.3 299.266 22.323C298.79 22.4177 298.418 22.7898 298.323 23.2659ZM293.523 25.2659C293.5 25.3818 293.5 25.5212 293.5 25.8V26.8C293.5 27.0788 293.5 27.2182 293.523 27.3341C293.618 27.8101 293.99 28.1822 294.466 28.2769C294.582 28.3 294.721 28.3 295 28.3C295.279 28.3 295.418 28.3 295.534 28.2769C296.01 28.1822 296.382 27.8101 296.477 27.3341C296.5 27.2182 296.5 27.0788 296.5 26.8V25.8C296.5 25.5212 296.5 25.3818 296.477 25.2659C296.382 24.7898 296.01 24.4177 295.534 24.323C295.418 24.3 295.279 24.3 295 24.3C294.721 24.3 294.582 24.3 294.466 24.323C293.99 24.4177 293.618 24.7898 293.523 25.2659Z" fill="#171725"/>
<path fill-rule="evenodd" clip-rule="evenodd" d="M323.3 19.6964C325.535 19.6965 327.684 20.555 329.303 22.0946C329.425 22.2135 329.62 22.212 329.74 22.0912L330.906 20.9148C330.967 20.8536 331.001 20.7706 331 20.6844C330.999 20.5981 330.965 20.5155 330.903 20.455C326.653 16.3817 319.947 16.3817 315.697 20.455C315.636 20.5155 315.601 20.598 315.6 20.6843C315.599 20.7706 315.633 20.8535 315.694 20.9148L316.86 22.0912C316.98 22.2121 317.175 22.2136 317.297 22.0946C318.917 20.5549 321.066 19.6964 323.3 19.6964ZM323.3 23.5238C324.528 23.5237 325.712 23.98 326.622 24.804C326.745 24.921 326.939 24.9185 327.059 24.7983L328.223 23.6219C328.285 23.5602 328.319 23.4765 328.318 23.3895C328.317 23.3025 328.281 23.2195 328.219 23.1591C325.447 20.5813 321.156 20.5813 318.385 23.1591C318.322 23.2195 318.286 23.3026 318.286 23.3896C318.285 23.4766 318.319 23.5603 318.38 23.6219L319.544 24.7983C319.664 24.9185 319.858 24.921 319.981 24.804C320.891 23.9806 322.074 23.5243 323.3 23.5238ZM325.538 26.3314C325.6 26.2703 325.635 26.1862 325.633 26.0989C325.631 26.0117 325.593 25.9291 325.529 25.8706C324.242 24.7827 322.359 24.7827 321.072 25.8706C321.008 25.929 320.97 26.0116 320.968 26.0989C320.966 26.1861 321 26.2702 321.063 26.3314L323.077 28.3639C323.136 28.4236 323.216 28.4572 323.3 28.4572C323.384 28.4572 323.465 28.4236 323.524 28.3639L325.538 26.3314Z" fill="#171725"/>
</g>
<path d="M31.66 29V20.69L29.935 21.095V19.625L32.47 18.5H33.655V29H31.66ZM39.1109 29.18C38.3809 29.18 37.7659 29.04 37.2659 28.76C36.7659 28.47 36.3759 28.095 36.0959 27.635C35.8159 27.175 35.6509 26.68 35.6009 26.15H37.3859C37.4659 26.61 37.6559 26.965 37.9559 27.215C38.2659 27.465 38.6559 27.59 39.1259 27.59C39.7959 27.59 40.3359 27.285 40.7459 26.675C41.1559 26.055 41.3759 25.115 41.4059 23.855C41.1659 24.265 40.8009 24.605 40.3109 24.875C39.8309 25.145 39.3009 25.28 38.7209 25.28C38.1409 25.28 37.5959 25.14 37.0859 24.86C36.5759 24.58 36.1609 24.185 35.8409 23.675C35.5209 23.165 35.3609 22.565 35.3609 21.875C35.3609 21.245 35.5159 20.66 35.8259 20.12C36.1359 19.58 36.5659 19.145 37.1159 18.815C37.6659 18.485 38.3109 18.32 39.0509 18.32C39.8409 18.32 40.5059 18.465 41.0459 18.755C41.5859 19.045 42.0159 19.435 42.3359 19.925C42.6659 20.415 42.9009 20.96 43.0409 21.56C43.1909 22.16 43.2659 22.775 43.2659 23.405C43.2659 24.575 43.1009 25.595 42.7709 26.465C42.4509 27.325 41.9759 27.995 41.3459 28.475C40.7259 28.945 39.9809 29.18 39.1109 29.18ZM39.1709 23.66C39.5409 23.66 39.8759 23.58 40.1759 23.42C40.4759 23.25 40.7109 23.03 40.8809 22.76C41.0509 22.48 41.1359 22.17 41.1359 21.83C41.1359 21.29 40.9459 20.845 40.5659 20.495C40.1959 20.145 39.7259 19.97 39.1559 19.97C38.5959 19.97 38.1309 20.145 37.7609 20.495C37.3909 20.835 37.2059 21.27 37.2059 21.8C37.2059 22.36 37.3909 22.81 37.7609 23.15C38.1309 23.49 38.6009 23.66 39.1709 23.66ZM45.6477 29.105C45.2977 29.105 45.0077 28.995 44.7777 28.775C44.5577 28.555 44.4477 28.29 44.4477 27.98C44.4477 27.66 44.5577 27.39 44.7777 27.17C45.0077 26.95 45.2977 26.84 45.6477 26.84C45.9977 26.84 46.2827 26.95 46.5027 27.17C46.7327 27.39 46.8477 27.66 46.8477 27.98C46.8477 28.29 46.7327 28.555 46.5027 28.775C46.2827 28.995 45.9977 29.105 45.6477 29.105ZM45.6477 23.645C45.2977 23.645 45.0077 23.535 44.7777 23.315C44.5577 23.095 44.4477 22.83 44.4477 22.52C44.4477 22.2 44.5577 21.93 44.7777 21.71C45.0077 21.49 45.2977 21.38 45.6477 21.38C45.9977 21.38 46.2827 21.49 46.5027 21.71C46.7327 21.93 46.8477 22.2 46.8477 22.52C46.8477 22.83 46.7327 23.095 46.5027 23.315C46.2827 23.535 45.9977 23.645 45.6477 23.645ZM48.0805 29V27.605C48.7205 27.075 49.3405 26.55 49.9405 26.03C50.5505 25.51 51.0905 24.995 51.5605 24.485C52.0405 23.975 52.4205 23.48 52.7005 23C52.9905 22.51 53.1355 22.035 53.1355 21.575C53.1355 21.145 53.0155 20.765 52.7755 20.435C52.5455 20.105 52.1605 19.94 51.6205 19.94C51.0705 19.94 50.6555 20.12 50.3755 20.48C50.0955 20.84 49.9555 21.275 49.9555 21.785H48.0955C48.1155 21.015 48.2855 20.375 48.6055 19.865C48.9255 19.345 49.3505 18.96 49.8805 18.71C50.4105 18.45 51.0055 18.32 51.6655 18.32C52.7355 18.32 53.5655 18.615 54.1555 19.205C54.7555 19.785 55.0555 20.54 55.0555 21.47C55.0555 22.05 54.9205 22.615 54.6505 23.165C54.3905 23.715 54.0455 24.245 53.6155 24.755C53.1855 25.265 52.7205 25.745 52.2205 26.195C51.7205 26.635 51.2355 27.045 50.7655 27.425H55.3105V29H48.0805ZM57.208 29L61.168 20.135H55.993V18.5H63.148V19.865L59.203 29H57.208Z" fill="#171725"/>
<defs>
<clipPath id="clip0_95_2149">
<rect width="68" height="13" fill="white" transform="translate(293.5 16.6)"/>
</clipPath>
</defs>
</svg>
